# xmcd
#
# Track frame offsets:
#	150
#	16338
#	32641
#	47849
#	63488
#	78355
#	93217
#	106960
#	126406
#	140979
#	150063
#	169838
#
# Disc length: 2498 seconds
#
# Revision: 0
# Processed by: cddbd v1.5.2PL0 Copyright (c) Steve Scherf et al.
# Submitted via: EasyCDDAExtractor 16.0.6.1
#
DISCID=9609c00c
DTITLE=Филипп Клибанов - О женщинах с любовью
DYEAR=2012
DGENRE=
TTITLE0=Ах, Людочка, Людмила!!!
TTITLE1=Лена
TTITLE2=С днем рождения, Евгения!!!
TTITLE3=Лариса
TTITLE4=Надя, Надежда
TTITLE5=Юля-Джульетта
TTITLE6=Тамара, Томочка
TTITLE7=Аня, Аня
TTITLE8=Алина
TTITLE9=Оксана
TTITLE10=Регина-Анна
TTITLE11=Агафьюшка
EXTD=
EXTT0=
EXTT1=
EXTT2=
EXTT3=
EXTT4=
EXTT5=
EXTT6=
EXTT7=
EXTT8=
EXTT9=
EXTT10=
EXTT11=
PLAYORDER=
